<svg style="object-fit:cover" id="my-svg" version="1" baseProfile="full" width="100%" height="100%" viewBox="0 0 1920 929" xmlns="http://www.w3.org/2000/svg"><rect width="1920" height="929" fill="#ffffff"/><defs><linearGradient id="linear-gradient" x1="0" x2="1" y1="0" y2="1"><stop offset="0%" stop-color="#4a894c90"/><stop offset="100%" stop-color="#2f485890"/></linearGradient></defs><path transform="scale(1, 1)" style="transform-origin:center" d="M 0,929 V 0,185 C 68.00239322533136,171.595176730486 136.00478645066272,158.19035346097203 218,159 C 299.9952135493373,159.80964653902797 395.9832474226804,174.83376288659795 490,190 C 584.0167525773196,205.16623711340205 676.0622238586157,220.4745949926362 745,203 C 813.9377761413843,185.5254050073638 859.767857142857,135.26785714285714 937,132 C 1014.232142857143,128.73214285714286 1122.866347569956,172.45397643593523 1205,203 C 1287.133652430044,233.54602356406477 1342.7667525773193,250.91623711340202 1408,254 C 1473.2332474226807,257.083762886598 1548.066642120766,245.88107511045655 1635,232 C 1721.933357879234,218.11892488954345 1820.966678939617,201.55946244477173 1920,185 C 1920,185 1920,929 1920,929 Z" stroke="none" stroke-width="0" fill="url(#linear-gradient)" class="transition-all duration-300 ease-in-out delay-150"/><defs><linearGradient id="linear-gradient" x1="0" x2="1" y1="0" y2="1"><stop offset="0%" stop-color="#4a894cff"/><stop offset="100%" stop-color="#2f4858ff"/></linearGradient></defs><path transform="scale(1, 1)" style="transform-origin:center" d="M 0,929 V 0,278 C 73.29252577319588,243.35456553755523 146.58505154639175,208.70913107511046 233,221 C 319.41494845360825,233.29086892488954 418.95231958762884,292.5180412371134 505,303 C 591.0476804123712,313.4819587628866 663.6056701030928,275.2187039764359 729,261 C 794.3943298969072,246.78129602356407 852.6249999999999,256.60714285714283 922,266 C 991.3750000000001,275.39285714285717 1071.8943298969075,284.35272459499265 1173,294 C 1274.1056701030925,303.64727540500735 1395.797680412371,313.98195876288656 1478,323 C 1560.202319587629,332.01804123711344 1602.9149484536085,339.71944035346104 1670,332 C 1737.0850515463915,324.28055964653896 1828.5425257731958,301.14027982326945 1920,278 C 1920,278 1920,929 1920,929 Z" stroke="none" stroke-width="0" fill="url(#linear-gradient)" class="transition-all duration-300 ease-in-out delay-150"/></svg>